<?xml version="1.0" encoding="UTF-8"?>
<svg id="Layer_1" data-name="Layer 1" xmlns="http://www.w3.org/2000/svg" viewBox="0 0 196.82 94.85">
  <defs>
    <style>
      .cls-1 {
        fill: #019a49;
      }

      .cls-2 {
        stroke: #231f20;
        stroke-miterlimit: 2.61;
        stroke-width: .89px;
      }

      .cls-2, .cls-3 {
        fill: #009a49;
      }

      .cls-4 {
        fill: #231f20;
        fill-rule: evenodd;
      }

      .cls-5 {
        font-size: 37.17px;
      }

      .cls-5, .cls-6 {
        fill: #b3b2b3;
        font-family: ActionForceNormal, 'Action Force';
      }

      .cls-6 {
        font-size: 29.43px;
        letter-spacing: .05em;
      }
    </style>
  </defs>
  <polygon class="cls-4" points="-.23 .26 196.58 .26 196.58 95.1 -.23 95.1 -.23 .26 -.23 .26"/>
  <text class="cls-5" transform="translate(29.33 49.01) scale(.81 1)"><tspan x="0" y="0">JASON</tspan></text>
  <polygon class="cls-1" points="169.28 41.48 129.27 41.48 125.42 56.54 169.28 56.54 169.28 41.48 169.28 41.48"/>
  <polygon class="cls-1" points="169.28 20.46 134.65 20.46 130.56 36.46 169.28 36.46 169.28 20.46 169.28 20.46"/>
  <polygon class="cls-3" points="120.27 77.24 169.28 77.24 169.28 61.55 124.13 61.55 120.27 77.24 120.27 77.24"/>
  <text class="cls-6" transform="translate(55.73 76.65) scale(.62 1)"><tspan x="0" y="0">GAMES</tspan></text>
  <polygon class="cls-2" points="48.22 62.87 58.72 55.94 47.58 55.76 46.85 47.62 41.32 55.66 30.39 55.49 36.41 62.8 26.51 77.2 40.6 67.9 49.67 78.92 48.22 62.87 48.22 62.87"/>
</svg>