<?xml version="1.0" encoding="UTF-8"?>
<svg id="Layer_1" data-name="Layer 1" xmlns="http://www.w3.org/2000/svg" viewBox="0 0 196.82 94.85">
  <defs>
    <style>
      .cls-1, .cls-2 {
        fill: #019a49;
      }

      .cls-3 {
        fill: #231f20;
        fill-rule: evenodd;
      }

      .cls-4 {
        font-size: 37.17px;
      }

      .cls-4, .cls-5 {
        fill: #b3b2b3;
        font-family: ActionForceNormal, 'Action Force';
      }

      .cls-5 {
        font-size: 29.43px;
        letter-spacing: .05em;
      }

      .cls-6 {
        fill: #009a49;
      }

      .cls-2 {
        stroke: #231f20;
        stroke-miterlimit: 2.61;
        stroke-width: .89px;
      }
    </style>
  </defs>
  <polygon class="cls-3" points="-.23 .26 196.58 .26 196.58 95.1 -.23 95.1 -.23 .26 -.23 .26"/>
  <text class="cls-4" transform="translate(29.33 49.01) scale(.81 1)"><tspan x="0" y="0">JASON</tspan></text>
  <text class="cls-5" transform="translate(23.83 77.24) scale(.62 1)"><tspan x="0" y="0">OLYMPICS</tspan></text>
  <polygon class="cls-1" points="169.28 41.48 129.27 41.48 125.42 56.54 169.28 56.54 169.28 41.48 169.28 41.48"/>
  <polygon class="cls-1" points="169.28 20.46 134.65 20.46 130.56 36.46 169.28 36.46 169.28 20.46 169.28 20.46"/>
  <polygon class="cls-6" points="120.27 77.24 169.28 77.24 169.28 61.55 124.13 61.55 120.27 77.24 120.27 77.24"/>
  <polygon class="cls-2" points="42.28 27.1 48.4 23.06 41.91 22.95 41.48 18.2 38.25 22.9 31.88 22.79 35.39 27.06 29.62 35.46 37.84 30.03 43.12 36.46 42.28 27.1 42.28 27.1"/>
</svg>