<?xml version="1.0" encoding="UTF-8"?>
<svg id="Layer_1" data-name="Layer 1" xmlns="http://www.w3.org/2000/svg" viewBox="0 0 196.82 94.85">
  <defs>
    <style>
      .cls-1 {
        font-size: 37.17px;
      }

      .cls-1, .cls-2 {
        fill: #019a49;
        font-family: ActionForceNormal, 'Action Force';
      }

      .cls-3 {
        fill: #231f20;
        fill-rule: evenodd;
      }

      .cls-2 {
        font-size: 29.43px;
        letter-spacing: .05em;
      }

      .cls-4, .cls-5 {
        fill: #b3b4b4;
      }

      .cls-5 {
        stroke: #231f20;
        stroke-miterlimit: 2.61;
        stroke-width: .89px;
      }
    </style>
  </defs>
  <polygon class="cls-3" points="-.23 .32 196.58 .32 196.58 95.17 -.23 95.17 -.23 .32 -.23 .32"/>
  <text class="cls-1" transform="translate(29.33 49.07) scale(.81 1)"><tspan x="0" y="0">JASON</tspan></text>
  <text class="cls-2" transform="translate(23.83 77.3) scale(.62 1)"><tspan x="0" y="0">OLYMPICS</tspan></text>
  <polygon class="cls-4" points="169.28 41.55 129.27 41.55 125.42 56.6 169.28 56.6 169.28 41.55 169.28 41.55"/>
  <polygon class="cls-4" points="169.28 20.53 134.65 20.53 130.56 36.53 169.28 36.53 169.28 20.53 169.28 20.53"/>
  <polygon class="cls-4" points="120.27 77.3 169.28 77.3 169.28 61.62 124.13 61.62 120.27 77.3 120.27 77.3"/>
  <polygon class="cls-5" points="42.28 27.16 48.4 23.12 41.91 23.02 41.48 18.27 38.25 22.96 31.88 22.86 35.39 27.13 29.62 35.52 37.84 30.1 43.12 36.53 42.28 27.16 42.28 27.16"/>
</svg>